<svg width="199" height="35" viewBox="0 0 199 35" fill="none" xmlns="http://www.w3.org/2000/svg">
<path d="M5.89258 24.6846C5.89258 24.3623 5.87793 23.9424 5.84863 23.4248C5.8291 22.9072 5.7998 22.3359 5.76074 21.7109C5.72168 21.0859 5.67773 20.4219 5.62891 19.7188C5.58008 19.0156 5.52637 18.3174 5.46777 17.624C5.40918 16.9307 5.35059 16.2617 5.29199 15.6172C5.24316 14.9629 5.19434 14.3721 5.14551 13.8447C5.06738 13.0928 4.95996 12.541 4.82324 12.1895C4.68652 11.8379 4.46191 11.6621 4.14941 11.6621C3.85645 11.6621 3.66113 11.7451 3.56348 11.9111C3.47559 12.0771 3.42188 12.2822 3.40234 12.5264C3.39258 12.7705 3.3877 13.0391 3.3877 13.332C3.39746 13.6152 3.35352 13.8789 3.25586 14.123C3.16797 14.3672 2.99707 14.5723 2.74316 14.7383C2.48926 14.9043 2.09863 14.9873 1.57129 14.9873C1.2002 14.9873 0.882812 14.8359 0.619141 14.5332C0.355469 14.2207 0.223633 13.7715 0.223633 13.1855C0.223633 12.3652 0.467773 11.623 0.956055 10.959C1.43457 10.2852 2.11328 9.71387 2.99219 9.24512C3.87109 8.7666 4.93066 8.39551 6.1709 8.13184C7.41113 7.86816 8.78809 7.73633 10.3018 7.73633C11.3857 7.73633 12.3867 7.8584 13.3047 8.10254C14.2227 8.33691 15.0137 8.66895 15.6777 9.09863C16.3516 9.51855 16.8789 10.0215 17.2598 10.6074C17.6406 11.1836 17.8311 11.8135 17.8311 12.4971C17.8311 13.2686 17.6064 14.0059 17.1572 14.709C16.708 15.4121 16.0879 16.0566 15.2969 16.6426C14.5156 17.2285 13.5928 17.7412 12.5283 18.1807C11.4639 18.6104 10.3213 18.9473 9.10059 19.1914C8.75879 19.25 8.58789 19.46 8.58789 19.8213C8.58789 20.0654 8.60254 20.373 8.63184 20.7441C8.6709 21.1055 8.70508 21.4863 8.73438 21.8867C8.77344 22.2871 8.80762 22.6826 8.83691 23.0732C8.87598 23.4639 8.89551 23.8105 8.89551 24.1133C8.89551 24.6602 8.76855 25.0508 8.51465 25.2852C8.26074 25.5195 7.88477 25.6367 7.38672 25.6367C6.91797 25.6367 6.55176 25.5537 6.28809 25.3877C6.02441 25.2314 5.89258 24.9971 5.89258 24.6846ZM14.7988 12.9219C14.7988 12.5898 14.6572 12.2725 14.374 11.9697C14.0908 11.667 13.71 11.3984 13.2314 11.1641C12.7529 10.9297 12.1963 10.7441 11.5615 10.6074C10.9365 10.4707 10.2773 10.4023 9.58398 10.4023C9.24219 10.4023 8.9541 10.417 8.71973 10.4463C8.49512 10.4658 8.31445 10.5049 8.17773 10.5635C8.04102 10.6221 7.94336 10.7002 7.88477 10.7979C7.83594 10.8857 7.81152 11.0029 7.81152 11.1494C7.81152 11.2471 7.82617 11.4766 7.85547 11.8379C7.88477 12.1895 7.92383 12.5996 7.97266 13.0684C8.02148 13.5371 8.07031 14.0303 8.11914 14.5479C8.17773 15.0557 8.23633 15.5146 8.29492 15.9248C8.32422 16.2275 8.36328 16.4277 8.41211 16.5254C8.4707 16.623 8.55859 16.6719 8.67578 16.6719C9.00781 16.6719 9.38867 16.6182 9.81836 16.5107C10.248 16.3936 10.6875 16.2422 11.1367 16.0566C11.5957 15.8613 12.04 15.6416 12.4697 15.3975C12.9092 15.1436 13.2998 14.8799 13.6416 14.6064C13.9932 14.3232 14.2715 14.04 14.4766 13.7568C14.6914 13.4639 14.7988 13.1855 14.7988 12.9219ZM27.9678 10.1973C28.5049 10.1973 29.0225 10.2803 29.5205 10.4463C30.0186 10.6123 30.458 10.8418 30.8389 11.1348C31.2197 11.4277 31.5225 11.7793 31.7471 12.1895C31.9814 12.5996 32.0986 13.0537 32.0986 13.5518C32.0986 13.7568 32.0498 13.957 31.9521 14.1523C31.8643 14.3379 31.7422 14.5039 31.5859 14.6504C31.4297 14.7871 31.249 14.8994 31.0439 14.9873C30.8486 15.0654 30.6436 15.1045 30.4287 15.1045C30.4092 15.1045 30.3896 15.1094 30.3701 15.1191C30.3604 15.1191 30.3457 15.1191 30.3262 15.1191C30.3066 15.1289 30.2871 15.1338 30.2676 15.1338L30.3262 16.3057C30.3652 17.7021 30.5605 18.7227 30.9121 19.3672C31.2734 20.0117 31.7422 20.334 32.3184 20.334C32.5234 20.334 32.7041 20.3145 32.8604 20.2754C33.0264 20.2363 33.1777 20.1924 33.3145 20.1436C33.4609 20.085 33.5977 20.0361 33.7246 19.9971C33.8516 19.958 33.9785 19.9385 34.1055 19.9385C34.3301 19.9385 34.5254 20.0361 34.6914 20.2314C34.8672 20.4268 34.9551 20.6611 34.9551 20.9346C34.9551 21.208 34.8477 21.4814 34.6328 21.7549C34.4277 22.0283 34.1543 22.2773 33.8125 22.502C33.4707 22.7168 33.085 22.8926 32.6553 23.0293C32.2256 23.166 31.791 23.2344 31.3516 23.2344C30.5898 23.2344 29.9209 22.9219 29.3447 22.2969C28.7686 21.6621 28.3584 20.7344 28.1143 19.5137C28.0557 19.3184 27.9775 19.2207 27.8799 19.2207C27.7627 19.2207 27.6602 19.2793 27.5723 19.3965C26.6055 20.6172 25.5752 21.5352 24.4814 22.1504C23.3877 22.7559 22.3086 23.0586 21.2441 23.0586C20.7461 23.0586 20.2969 22.9854 19.8965 22.8389C19.4961 22.6924 19.1543 22.4873 18.8711 22.2236C18.5977 21.9502 18.3828 21.623 18.2266 21.2422C18.0801 20.8516 18.0068 20.417 18.0068 19.9385C18.0068 19.2646 18.1533 18.5566 18.4463 17.8145C18.749 17.0723 19.1543 16.3398 19.6621 15.6172C20.1699 14.8945 20.7559 14.2061 21.4199 13.5518C22.0938 12.8975 22.7969 12.3213 23.5293 11.8232C24.2715 11.3252 25.0234 10.9297 25.7852 10.6367C26.5469 10.3438 27.2744 10.1973 27.9678 10.1973ZM27.4844 15.2656C27.6602 14.9336 27.8213 14.6943 27.9678 14.5479C28.1143 14.3916 28.3242 14.2891 28.5977 14.2402C28.8125 14.2109 28.9199 14.1426 28.9199 14.0352C28.9199 13.957 28.8906 13.874 28.832 13.7861C28.6465 13.5322 28.4512 13.3125 28.2461 13.127C28.041 12.9316 27.7676 12.834 27.4258 12.834C27.0547 12.834 26.6396 12.9414 26.1807 13.1562C25.7217 13.3711 25.2529 13.6592 24.7744 14.0205C24.3057 14.3721 23.8418 14.7773 23.3828 15.2363C22.9336 15.6855 22.5332 16.1494 22.1816 16.6279C21.8301 17.1064 21.5469 17.5801 21.332 18.0488C21.1172 18.5176 21.0098 18.9375 21.0098 19.3086C21.0098 19.6406 21.0977 19.8994 21.2734 20.085C21.459 20.2705 21.708 20.3633 22.0205 20.3633C22.8213 20.3633 23.6953 19.9385 24.6426 19.0889C25.5898 18.2393 26.5371 16.9648 27.4844 15.2656ZM43.2754 11.6914C43.3047 11.418 43.3389 11.1934 43.3779 11.0176C43.4268 10.832 43.4951 10.6855 43.583 10.5781C43.6807 10.4609 43.8027 10.3779 43.9492 10.3291C44.0957 10.2803 44.2812 10.2559 44.5059 10.2559C45.2188 10.2559 45.7412 10.3633 46.0732 10.5781C46.415 10.7832 46.5859 11.1152 46.5859 11.5742C46.5859 11.6621 46.5664 11.8574 46.5273 12.1602C46.498 12.4531 46.4541 12.8193 46.3955 13.2588C46.3369 13.6885 46.2686 14.167 46.1904 14.6943C46.1221 15.2119 46.0537 15.7393 45.9854 16.2764C45.8096 17.5264 45.6094 18.9277 45.3848 20.4805C45.248 21.3984 44.9746 22.0576 44.5645 22.458C44.1641 22.8584 43.5684 23.0586 42.7773 23.0586C42.1816 23.0586 41.5664 22.9072 40.9316 22.6045C40.2969 22.3018 39.6816 21.8916 39.0859 21.374C38.4902 20.8564 37.9238 20.2559 37.3867 19.5723C36.8594 18.8789 36.3955 18.1465 35.9951 17.375C35.5947 16.5938 35.2773 15.7979 35.043 14.9873C34.8184 14.1768 34.7061 13.3857 34.7061 12.6143C34.7061 11.7451 34.8281 11.0957 35.0723 10.666C35.3262 10.2266 35.7607 10.0068 36.376 10.0068C36.8057 10.0068 37.1621 10.0361 37.4453 10.0947C37.7285 10.1436 37.9531 10.2363 38.1191 10.373C38.2949 10.5 38.417 10.6709 38.4854 10.8857C38.5635 11.1006 38.6025 11.3691 38.6025 11.6914C38.6025 11.9062 38.5928 12.1211 38.5732 12.3359C38.5537 12.5508 38.5439 12.7656 38.5439 12.9805C38.5439 13.4785 38.5928 14.001 38.6904 14.5479C38.7979 15.085 38.9395 15.6123 39.1152 16.1299C39.291 16.6475 39.4961 17.1406 39.7305 17.6094C39.9648 18.0684 40.2139 18.4736 40.4775 18.8252C40.7412 19.1768 41.0049 19.4551 41.2686 19.6602C41.542 19.8652 41.8057 19.9678 42.0596 19.9678C42.2354 19.9678 42.3672 19.9092 42.4551 19.792C42.5527 19.6748 42.6162 19.4746 42.6455 19.1914L43.2754 11.6914ZM47.8896 6.31543C47.8896 5.80762 48.0361 5.44629 48.3291 5.23145C48.6221 5.0166 49.1055 4.90918 49.7793 4.90918C50.0137 4.90918 50.2188 4.93359 50.3945 4.98242C50.5703 5.03125 50.7168 5.11426 50.834 5.23145C50.9512 5.33887 51.0439 5.49023 51.1123 5.68555C51.1904 5.87109 51.2539 6.11035 51.3027 6.40332C51.4297 7.27246 51.5566 8.18555 51.6836 9.14258C51.8203 10.0898 51.9473 11.0371 52.0645 11.9844C52.1914 12.9219 52.3086 13.8398 52.416 14.7383C52.5234 15.627 52.6162 16.457 52.6943 17.2285C52.7822 17.9902 52.8457 18.6689 52.8848 19.2646C52.9336 19.8506 52.958 20.3145 52.958 20.6562C52.958 21.0078 52.9238 21.3057 52.8555 21.5498C52.7969 21.7939 52.6895 21.9893 52.5332 22.1357C52.3867 22.2822 52.1914 22.3896 51.9473 22.458C51.7129 22.5166 51.4199 22.5459 51.0684 22.5459C50.7266 22.5459 50.4531 22.458 50.248 22.2822C50.0527 22.1064 49.9551 21.8379 49.9551 21.4766C49.9551 21.1055 49.9258 20.6123 49.8672 19.9971C49.8086 19.3721 49.7305 18.6787 49.6328 17.917C49.5352 17.1553 49.4229 16.3447 49.2959 15.4854C49.1787 14.626 49.0518 13.7764 48.915 12.9365C48.7881 12.0967 48.6611 11.291 48.5342 10.5195C48.417 9.73828 48.3096 9.0498 48.2119 8.4541C48.1143 7.84863 48.0361 7.35547 47.9775 6.97461C47.9189 6.58398 47.8896 6.36426 47.8896 6.31543ZM67.7676 19.792C68.0508 19.5479 68.3291 19.4258 68.6025 19.4258C68.7588 19.4258 68.9004 19.4648 69.0273 19.543C69.1543 19.6211 69.2959 19.7432 69.4521 19.9092C69.5986 20.1338 69.7012 20.3193 69.7598 20.4658C69.8281 20.6025 69.8623 20.7393 69.8623 20.876C69.8623 21.1689 69.7158 21.4473 69.4229 21.7109C68.9541 22.1016 68.4463 22.4531 67.8994 22.7656C67.3525 23.0684 66.7812 23.3271 66.1855 23.542C65.5898 23.7568 64.9746 23.918 64.3398 24.0254C63.7051 24.1426 63.0752 24.2012 62.4502 24.2012C61.6592 24.2012 60.917 24.0986 60.2236 23.8936C59.5303 23.6982 58.9102 23.415 58.3633 23.0439C57.8262 22.6729 57.3721 22.2285 57.001 21.7109C56.6299 21.1836 56.3662 20.5928 56.21 19.9385C56.1221 19.665 56.0391 19.4893 55.9609 19.4111C55.8926 19.3232 55.7754 19.2793 55.6094 19.2793C55.248 19.2793 54.9697 19.1914 54.7744 19.0156C54.5791 18.8398 54.4814 18.5859 54.4814 18.2539C54.4814 18.1172 54.4912 18.0293 54.5107 17.9902L54.54 17.6973C54.5889 17.3457 54.6816 17.0918 54.8184 16.9355C54.9648 16.7793 55.1895 16.7012 55.4922 16.7012H55.7119C56.1221 16.7012 56.4102 16.5107 56.5762 16.1299C56.8789 15.4561 57.2646 14.8408 57.7334 14.2842C58.2021 13.7275 58.7295 13.2539 59.3154 12.8633C59.9014 12.4629 60.5264 12.1553 61.1904 11.9404C61.8643 11.7158 62.5479 11.6035 63.2412 11.6035C63.9639 11.6035 64.6377 11.7109 65.2627 11.9258C65.8975 12.1309 66.4492 12.4189 66.918 12.79C67.3867 13.1611 67.7529 13.5957 68.0166 14.0938C68.29 14.5918 68.4268 15.1289 68.4268 15.7051C68.4268 16.1055 68.3486 16.4717 68.1924 16.8037C68.0361 17.1357 67.8115 17.4287 67.5186 17.6826C67.2256 17.9268 66.8691 18.127 66.4492 18.2832C66.0391 18.4395 65.5703 18.542 65.043 18.5908L59.96 19.1035C59.7646 19.1035 59.6035 19.1523 59.4766 19.25C59.3594 19.3477 59.3008 19.4795 59.3008 19.6455C59.3008 19.8994 59.3936 20.1436 59.5791 20.3779C59.7744 20.6123 60.0283 20.8223 60.3408 21.0078C60.6631 21.1836 61.0293 21.3252 61.4395 21.4326C61.8594 21.54 62.2891 21.5938 62.7285 21.5938C63.1484 21.5938 63.5781 21.5547 64.0176 21.4766C64.4668 21.3887 64.9062 21.2666 65.3359 21.1104C65.7754 20.9541 66.2002 20.7686 66.6104 20.5537C67.0205 20.3291 67.4062 20.0752 67.7676 19.792ZM64.501 16.0127C64.6475 15.9834 64.7744 15.915 64.8818 15.8076C64.9893 15.6904 65.043 15.5488 65.043 15.3828C65.043 15.2363 64.9893 15.0996 64.8818 14.9727C64.7744 14.8457 64.6279 14.7334 64.4424 14.6357C64.2568 14.5283 64.042 14.4453 63.7979 14.3867C63.5537 14.3281 63.2949 14.2988 63.0215 14.2988C62.6211 14.2988 62.2109 14.3574 61.791 14.4746C61.3711 14.5918 60.9902 14.748 60.6484 14.9434C60.3066 15.1289 60.0283 15.3389 59.8135 15.5732C59.5986 15.7979 59.4912 16.0225 59.4912 16.2471C59.4912 16.4717 59.6279 16.584 59.9014 16.584C60.0674 16.584 60.3359 16.5645 60.707 16.5254C61.0781 16.4863 61.4883 16.4424 61.9375 16.3936C62.3867 16.335 62.8408 16.2715 63.2998 16.2031C63.7588 16.1348 64.1592 16.0713 64.501 16.0127ZM79.0762 11.1494C78.8809 11.1299 78.6953 11.0664 78.5195 10.959C78.3438 10.8516 78.1875 10.7148 78.0508 10.5488C77.9238 10.373 77.8213 10.1826 77.7432 9.97754C77.665 9.7627 77.626 9.54297 77.626 9.31836C77.626 9.03516 77.6943 8.81055 77.8311 8.64453C77.9775 8.47852 78.1631 8.39551 78.3877 8.39551C78.5146 8.39551 78.7197 8.41016 79.0029 8.43945C79.2861 8.46875 79.6182 8.50781 79.999 8.55664C80.3896 8.5957 80.8096 8.64453 81.2588 8.70312C81.7178 8.75195 82.1816 8.80078 82.6504 8.84961C83.1289 8.88867 83.5977 8.92285 84.0566 8.95215C84.5156 8.98145 84.9453 8.99609 85.3457 8.99609C85.5703 8.99609 85.7705 8.97168 85.9463 8.92285C86.1318 8.86426 86.3223 8.77637 86.5176 8.65918C86.8594 8.41504 87.25 8.22461 87.6895 8.08789C88.1387 7.95117 88.6074 7.88281 89.0957 7.88281C89.5742 7.88281 90.082 7.9707 90.6191 8.14648C91.1562 8.3125 91.6494 8.52734 92.0986 8.79102C92.5576 9.04492 92.9336 9.32812 93.2266 9.64062C93.5293 9.95312 93.6807 10.2461 93.6807 10.5195C93.6807 10.7344 93.6318 10.915 93.5342 11.0615C93.4463 11.208 93.2803 11.3301 93.0361 11.4277C92.792 11.5156 92.4551 11.5938 92.0254 11.6621C91.6055 11.7207 91.0684 11.7695 90.4141 11.8086C90.1895 11.8281 90.0234 11.8965 89.916 12.0137C89.8086 12.1211 89.7549 12.2725 89.7549 12.4678C89.7549 12.6436 89.7988 12.9463 89.8867 13.376C89.9844 13.7959 90.0869 14.3184 90.1943 14.9434C90.3115 15.5586 90.4141 16.2666 90.502 17.0674C90.5996 17.8584 90.6484 18.708 90.6484 19.6162C90.6484 20.5439 90.5166 21.3887 90.2529 22.1504C89.999 22.9023 89.6328 23.5469 89.1543 24.084C88.6758 24.6211 88.0996 25.0312 87.4258 25.3145C86.752 25.6074 86 25.7539 85.1699 25.7539C84.4375 25.7539 83.7246 25.6465 83.0312 25.4316C82.3477 25.2168 81.7031 24.9189 81.0977 24.5381C80.4922 24.1572 79.9355 23.6982 79.4277 23.1611C78.9297 22.624 78.5 22.0332 78.1387 21.3887C77.7773 20.7441 77.4941 20.0557 77.2891 19.3232C77.0938 18.5908 76.9961 17.834 76.9961 17.0527C76.9961 16.6914 77.1035 16.3936 77.3184 16.1592C77.5332 15.915 77.8066 15.793 78.1387 15.793C78.4414 15.793 78.7295 15.8271 79.0029 15.8955C79.2764 15.9639 79.5107 16.0615 79.7061 16.1885C79.9111 16.3154 80.0723 16.4619 80.1895 16.6279C80.3066 16.7939 80.3652 16.9697 80.3652 17.1553C80.3652 17.9463 80.5068 18.7031 80.79 19.4258C81.083 20.1484 81.4736 20.7832 81.9619 21.3301C82.4502 21.877 83.0166 22.3115 83.6611 22.6338C84.3057 22.9561 84.9844 23.1172 85.6973 23.1172C86.332 23.1172 86.8203 22.8828 87.1621 22.4141C87.5137 21.9355 87.6895 21.252 87.6895 20.3633C87.6895 19.2402 87.5967 18.0488 87.4111 16.7891C87.2256 15.5195 86.9473 14.1377 86.5762 12.6436C86.4297 12.1162 86.1367 11.8379 85.6973 11.8086C84.5254 11.75 83.3877 11.667 82.2842 11.5596C81.1807 11.4521 80.1113 11.3154 79.0762 11.1494ZM94.0176 18.1367C94.0176 17.9707 94.0371 17.7852 94.0762 17.5801C94.1152 17.375 94.1348 17.1504 94.1348 16.9062C94.1348 16.7402 94.0615 16.6133 93.915 16.5254C93.7783 16.4375 93.6221 16.3398 93.4463 16.2324C93.2705 16.125 93.1094 15.9883 92.9629 15.8223C92.8262 15.6562 92.7578 15.417 92.7578 15.1045C92.7578 14.8799 92.8164 14.6553 92.9336 14.4307C93.0605 14.2061 93.2412 14.001 93.4756 13.8154C94.0518 13.3857 94.6475 13 95.2627 12.6582C95.8877 12.3164 96.5078 12.0283 97.123 11.7939C97.748 11.5596 98.3633 11.3789 98.9688 11.252C99.5742 11.125 100.155 11.0615 100.712 11.0615C101.649 11.0615 102.528 11.2373 103.349 11.5889C104.179 11.9307 104.896 12.4043 105.502 13.0098C106.117 13.6055 106.601 14.3086 106.952 15.1191C107.313 15.9199 107.494 16.7793 107.494 17.6973C107.494 18.5957 107.304 19.4502 106.923 20.2607C106.552 21.0615 106.049 21.7646 105.414 22.3701C104.779 22.9756 104.032 23.4541 103.173 23.8057C102.323 24.167 101.425 24.3477 100.478 24.3477C99.5498 24.3477 98.6904 24.1914 97.8994 23.8789C97.1084 23.5664 96.4248 23.1367 95.8486 22.5898C95.2725 22.0332 94.8232 21.3789 94.501 20.627C94.1787 19.8652 94.0176 19.0352 94.0176 18.1367ZM100.8 21.7109C101.21 21.7109 101.635 21.6279 102.074 21.4619C102.514 21.2959 102.914 21.0566 103.275 20.7441C103.646 20.4219 103.949 20.0312 104.184 19.5723C104.428 19.1133 104.55 18.5957 104.55 18.0195C104.55 17.4336 104.442 16.8867 104.228 16.3789C104.013 15.8711 103.715 15.4316 103.334 15.0605C102.963 14.6797 102.519 14.3818 102.001 14.167C101.493 13.9521 100.941 13.8447 100.346 13.8447C99.2617 13.8447 98.4316 14.1279 97.8555 14.6943C97.2793 15.251 96.9912 16.1104 96.9912 17.2725C96.9912 17.9072 97.084 18.498 97.2695 19.0449C97.4648 19.582 97.7334 20.0508 98.0752 20.4512C98.417 20.8418 98.8174 21.1494 99.2764 21.374C99.7451 21.5986 100.253 21.7109 100.8 21.7109ZM117.25 11.6914C117.279 11.418 117.313 11.1934 117.353 11.0176C117.401 10.832 117.47 10.6855 117.558 10.5781C117.655 10.4609 117.777 10.3779 117.924 10.3291C118.07 10.2803 118.256 10.2559 118.48 10.2559C119.193 10.2559 119.716 10.3633 120.048 10.5781C120.39 10.7832 120.561 11.1152 120.561 11.5742C120.561 11.6621 120.541 11.8574 120.502 12.1602C120.473 12.4531 120.429 12.8193 120.37 13.2588C120.312 13.6885 120.243 14.167 120.165 14.6943C120.097 15.2119 120.028 15.7393 119.96 16.2764C119.784 17.5264 119.584 18.9277 119.359 20.4805C119.223 21.3984 118.949 22.0576 118.539 22.458C118.139 22.8584 117.543 23.0586 116.752 23.0586C116.156 23.0586 115.541 22.9072 114.906 22.6045C114.271 22.3018 113.656 21.8916 113.061 21.374C112.465 20.8564 111.898 20.2559 111.361 19.5723C110.834 18.8789 110.37 18.1465 109.97 17.375C109.569 16.5938 109.252 15.7979 109.018 14.9873C108.793 14.1768 108.681 13.3857 108.681 12.6143C108.681 11.7451 108.803 11.0957 109.047 10.666C109.301 10.2266 109.735 10.0068 110.351 10.0068C110.78 10.0068 111.137 10.0361 111.42 10.0947C111.703 10.1436 111.928 10.2363 112.094 10.373C112.27 10.5 112.392 10.6709 112.46 10.8857C112.538 11.1006 112.577 11.3691 112.577 11.6914C112.577 11.9062 112.567 12.1211 112.548 12.3359C112.528 12.5508 112.519 12.7656 112.519 12.9805C112.519 13.4785 112.567 14.001 112.665 14.5479C112.772 15.085 112.914 15.6123 113.09 16.1299C113.266 16.6475 113.471 17.1406 113.705 17.6094C113.939 18.0684 114.188 18.4736 114.452 18.8252C114.716 19.1768 114.979 19.4551 115.243 19.6602C115.517 19.8652 115.78 19.9678 116.034 19.9678C116.21 19.9678 116.342 19.9092 116.43 19.792C116.527 19.6748 116.591 19.4746 116.62 19.1914L117.25 11.6914ZM131.854 10.1973C132.392 10.1973 132.909 10.2803 133.407 10.4463C133.905 10.6123 134.345 10.8418 134.726 11.1348C135.106 11.4277 135.409 11.7793 135.634 12.1895C135.868 12.5996 135.985 13.0537 135.985 13.5518C135.985 13.7568 135.937 13.957 135.839 14.1523C135.751 14.3379 135.629 14.5039 135.473 14.6504C135.316 14.7871 135.136 14.8994 134.931 14.9873C134.735 15.0654 134.53 15.1045 134.315 15.1045C134.296 15.1045 134.276 15.1094 134.257 15.1191C134.247 15.1191 134.232 15.1191 134.213 15.1191C134.193 15.1289 134.174 15.1338 134.154 15.1338L134.213 16.3057C134.252 17.7021 134.447 18.7227 134.799 19.3672C135.16 20.0117 135.629 20.334 136.205 20.334C136.41 20.334 136.591 20.3145 136.747 20.2754C136.913 20.2363 137.064 20.1924 137.201 20.1436C137.348 20.085 137.484 20.0361 137.611 19.9971C137.738 19.958 137.865 19.9385 137.992 19.9385C138.217 19.9385 138.412 20.0361 138.578 20.2314C138.754 20.4268 138.842 20.6611 138.842 20.9346C138.842 21.208 138.734 21.4814 138.52 21.7549C138.314 22.0283 138.041 22.2773 137.699 22.502C137.357 22.7168 136.972 22.8926 136.542 23.0293C136.112 23.166 135.678 23.2344 135.238 23.2344C134.477 23.2344 133.808 22.9219 133.231 22.2969C132.655 21.6621 132.245 20.7344 132.001 19.5137C131.942 19.3184 131.864 19.2207 131.767 19.2207C131.649 19.2207 131.547 19.2793 131.459 19.3965C130.492 20.6172 129.462 21.5352 128.368 22.1504C127.274 22.7559 126.195 23.0586 125.131 23.0586C124.633 23.0586 124.184 22.9854 123.783 22.8389C123.383 22.6924 123.041 22.4873 122.758 22.2236C122.484 21.9502 122.27 21.623 122.113 21.2422C121.967 20.8516 121.894 20.417 121.894 19.9385C121.894 19.2646 122.04 18.5566 122.333 17.8145C122.636 17.0723 123.041 16.3398 123.549 15.6172C124.057 14.8945 124.643 14.2061 125.307 13.5518C125.98 12.8975 126.684 12.3213 127.416 11.8232C128.158 11.3252 128.91 10.9297 129.672 10.6367C130.434 10.3438 131.161 10.1973 131.854 10.1973ZM131.371 15.2656C131.547 14.9336 131.708 14.6943 131.854 14.5479C132.001 14.3916 132.211 14.2891 132.484 14.2402C132.699 14.2109 132.807 14.1426 132.807 14.0352C132.807 13.957 132.777 13.874 132.719 13.7861C132.533 13.5322 132.338 13.3125 132.133 13.127C131.928 12.9316 131.654 12.834 131.312 12.834C130.941 12.834 130.526 12.9414 130.067 13.1562C129.608 13.3711 129.14 13.6592 128.661 14.0205C128.192 14.3721 127.729 14.7773 127.27 15.2363C126.82 15.6855 126.42 16.1494 126.068 16.6279C125.717 17.1064 125.434 17.5801 125.219 18.0488C125.004 18.5176 124.896 18.9375 124.896 19.3086C124.896 19.6406 124.984 19.8994 125.16 20.085C125.346 20.2705 125.595 20.3633 125.907 20.3633C126.708 20.3633 127.582 19.9385 128.529 19.0889C129.477 18.2393 130.424 16.9648 131.371 15.2656ZM139.574 11.1787C139.574 11.0322 139.638 10.8906 139.765 10.7539C139.892 10.6074 140.058 10.4805 140.263 10.373C140.468 10.2559 140.697 10.1631 140.951 10.0947C141.215 10.0166 141.479 9.97754 141.742 9.97754C141.889 9.97754 142.011 10.0166 142.108 10.0947C142.216 10.1729 142.309 10.3242 142.387 10.5488C142.465 10.7637 142.533 11.0713 142.592 11.4717C142.66 11.8623 142.724 12.375 142.782 13.0098C142.821 13.2051 142.855 13.3564 142.885 13.4639C142.924 13.5615 142.973 13.6104 143.031 13.6104C143.119 13.6104 143.207 13.459 143.295 13.1562C144.008 11.0957 145.038 10.0654 146.386 10.0654C147.011 10.0654 147.577 10.2607 148.085 10.6514C148.603 11.042 149.081 11.6816 149.521 12.5703C149.97 13.4492 150.395 14.6113 150.795 16.0566C151.195 17.4922 151.596 19.2646 151.996 21.374C152.016 21.4814 152.03 21.5791 152.04 21.667C152.05 21.7549 152.055 21.8379 152.055 21.916C152.055 22.1406 152.001 22.3359 151.894 22.502C151.796 22.6582 151.664 22.79 151.498 22.8975C151.332 22.9951 151.146 23.0684 150.941 23.1172C150.736 23.1758 150.531 23.2051 150.326 23.2051C149.916 23.2051 149.618 23.1611 149.433 23.0732C149.257 22.9854 149.145 22.8193 149.096 22.5752C148.812 21.0908 148.534 19.7725 148.261 18.6201C147.997 17.4678 147.733 16.501 147.47 15.7197C147.216 14.9287 146.962 14.3281 146.708 13.918C146.454 13.5078 146.2 13.3027 145.946 13.3027C145.692 13.3027 145.453 13.4639 145.229 13.7861C145.014 14.0986 144.804 14.5918 144.599 15.2656C144.394 15.9395 144.193 16.7939 143.998 17.8291C143.812 18.8643 143.632 20.0996 143.456 21.5352C143.407 21.9258 143.212 22.2383 142.87 22.4727C142.528 22.707 142.094 22.8242 141.566 22.8242C141.215 22.8242 140.946 22.751 140.761 22.6045C140.575 22.458 140.473 22.2578 140.453 22.0039C140.365 19.9727 140.268 18.3027 140.16 16.9941C140.062 15.6758 139.97 14.6211 139.882 13.8301C139.794 13.0293 139.721 12.4336 139.662 12.043C139.604 11.6523 139.574 11.3643 139.574 11.1787ZM153.783 18.1367C153.783 17.9707 153.803 17.7852 153.842 17.5801C153.881 17.375 153.9 17.1504 153.9 16.9062C153.9 16.7402 153.827 16.6133 153.681 16.5254C153.544 16.4375 153.388 16.3398 153.212 16.2324C153.036 16.125 152.875 15.9883 152.729 15.8223C152.592 15.6562 152.523 15.417 152.523 15.1045C152.523 14.8799 152.582 14.6553 152.699 14.4307C152.826 14.2061 153.007 14.001 153.241 13.8154C153.817 13.3857 154.413 13 155.028 12.6582C155.653 12.3164 156.273 12.0283 156.889 11.7939C157.514 11.5596 158.129 11.3789 158.734 11.252C159.34 11.125 159.921 11.0615 160.478 11.0615C161.415 11.0615 162.294 11.2373 163.114 11.5889C163.944 11.9307 164.662 12.4043 165.268 13.0098C165.883 13.6055 166.366 14.3086 166.718 15.1191C167.079 15.9199 167.26 16.7793 167.26 17.6973C167.26 18.5957 167.069 19.4502 166.688 20.2607C166.317 21.0615 165.814 21.7646 165.18 22.3701C164.545 22.9756 163.798 23.4541 162.938 23.8057C162.089 24.167 161.19 24.3477 160.243 24.3477C159.315 24.3477 158.456 24.1914 157.665 23.8789C156.874 23.5664 156.19 23.1367 155.614 22.5898C155.038 22.0332 154.589 21.3789 154.267 20.627C153.944 19.8652 153.783 19.0352 153.783 18.1367ZM160.565 21.7109C160.976 21.7109 161.4 21.6279 161.84 21.4619C162.279 21.2959 162.68 21.0566 163.041 20.7441C163.412 20.4219 163.715 20.0312 163.949 19.5723C164.193 19.1133 164.315 18.5957 164.315 18.0195C164.315 17.4336 164.208 16.8867 163.993 16.3789C163.778 15.8711 163.48 15.4316 163.1 15.0605C162.729 14.6797 162.284 14.3818 161.767 14.167C161.259 13.9521 160.707 13.8447 160.111 13.8447C159.027 13.8447 158.197 14.1279 157.621 14.6943C157.045 15.251 156.757 16.1104 156.757 17.2725C156.757 17.9072 156.85 18.498 157.035 19.0449C157.23 19.582 157.499 20.0508 157.841 20.4512C158.183 20.8418 158.583 21.1494 159.042 21.374C159.511 21.5986 160.019 21.7109 160.565 21.7109ZM177.016 11.6914C177.045 11.418 177.079 11.1934 177.118 11.0176C177.167 10.832 177.235 10.6855 177.323 10.5781C177.421 10.4609 177.543 10.3779 177.689 10.3291C177.836 10.2803 178.021 10.2559 178.246 10.2559C178.959 10.2559 179.481 10.3633 179.813 10.5781C180.155 10.7832 180.326 11.1152 180.326 11.5742C180.326 11.6621 180.307 11.8574 180.268 12.1602C180.238 12.4531 180.194 12.8193 180.136 13.2588C180.077 13.6885 180.009 14.167 179.931 14.6943C179.862 15.2119 179.794 15.7393 179.726 16.2764C179.55 17.5264 179.35 18.9277 179.125 20.4805C178.988 21.3984 178.715 22.0576 178.305 22.458C177.904 22.8584 177.309 23.0586 176.518 23.0586C175.922 23.0586 175.307 22.9072 174.672 22.6045C174.037 22.3018 173.422 21.8916 172.826 21.374C172.23 20.8564 171.664 20.2559 171.127 19.5723C170.6 18.8789 170.136 18.1465 169.735 17.375C169.335 16.5938 169.018 15.7979 168.783 14.9873C168.559 14.1768 168.446 13.3857 168.446 12.6143C168.446 11.7451 168.568 11.0957 168.812 10.666C169.066 10.2266 169.501 10.0068 170.116 10.0068C170.546 10.0068 170.902 10.0361 171.186 10.0947C171.469 10.1436 171.693 10.2363 171.859 10.373C172.035 10.5 172.157 10.6709 172.226 10.8857C172.304 11.1006 172.343 11.3691 172.343 11.6914C172.343 11.9062 172.333 12.1211 172.313 12.3359C172.294 12.5508 172.284 12.7656 172.284 12.9805C172.284 13.4785 172.333 14.001 172.431 14.5479C172.538 15.085 172.68 15.6123 172.855 16.1299C173.031 16.6475 173.236 17.1406 173.471 17.6094C173.705 18.0684 173.954 18.4736 174.218 18.8252C174.481 19.1768 174.745 19.4551 175.009 19.6602C175.282 19.8652 175.546 19.9678 175.8 19.9678C175.976 19.9678 176.107 19.9092 176.195 19.792C176.293 19.6748 176.356 19.4746 176.386 19.1914L177.016 11.6914ZM184.618 8.05859C184.335 8.05859 184.066 8.01953 183.812 7.94141C183.568 7.85352 183.354 7.73633 183.168 7.58984C182.992 7.43359 182.851 7.25293 182.743 7.04785C182.636 6.84277 182.582 6.61816 182.582 6.37402C182.582 5.96387 182.743 5.63184 183.065 5.37793C183.397 5.12402 183.837 4.99707 184.384 4.99707C184.638 4.99707 184.882 5.0459 185.116 5.14355C185.351 5.23145 185.556 5.35352 185.731 5.50977C185.917 5.66602 186.063 5.85156 186.171 6.06641C186.278 6.27148 186.332 6.48633 186.332 6.71094C186.332 7.13086 186.176 7.46289 185.863 7.70703C185.561 7.94141 185.146 8.05859 184.618 8.05859ZM182.611 12.5264C182.611 12.1846 182.758 11.9062 183.051 11.6914C183.354 11.4668 183.749 11.3545 184.237 11.3545C185.116 11.3545 185.585 11.6572 185.644 12.2627C185.683 12.6826 185.722 13.1562 185.761 13.6836C185.81 14.2109 185.854 14.7725 185.893 15.3682C185.941 15.9541 185.98 16.5645 186.01 17.1992C186.049 17.8242 186.083 18.4443 186.112 19.0596C186.142 19.665 186.166 20.251 186.186 20.8174C186.205 21.3838 186.215 21.9014 186.215 22.3701C186.215 22.8584 186.039 23.2246 185.688 23.4688C185.346 23.7129 184.843 23.835 184.179 23.835C183.876 23.835 183.637 23.7617 183.461 23.6152C183.295 23.4785 183.212 23.2734 183.212 23C183.212 21.6523 183.178 20.3926 183.109 19.2207C183.051 18.0391 182.982 16.9893 182.904 16.0713C182.836 15.1533 182.768 14.3916 182.699 13.7861C182.641 13.1709 182.611 12.751 182.611 12.5264ZM194.096 10.915C194.604 10.915 195.097 10.9883 195.575 11.1348C196.054 11.2812 196.474 11.4814 196.835 11.7354C197.206 11.9795 197.504 12.2627 197.729 12.585C197.953 12.8975 198.065 13.2197 198.065 13.5518C198.065 13.7666 198.021 13.9766 197.934 14.1816C197.846 14.377 197.729 14.5527 197.582 14.709C197.436 14.8555 197.27 14.9775 197.084 15.0752C196.898 15.1631 196.703 15.207 196.498 15.207C196.273 15.207 196.068 15.124 195.883 14.958C195.697 14.7822 195.497 14.5918 195.282 14.3867C195.077 14.1719 194.843 13.9814 194.579 13.8154C194.325 13.6396 194.018 13.5518 193.656 13.5518C193.305 13.5518 192.987 13.6348 192.704 13.8008C192.421 13.9668 192.182 14.2012 191.986 14.5039C191.801 14.7969 191.654 15.1484 191.547 15.5586C191.449 15.959 191.4 16.3984 191.4 16.877C191.4 18.2441 191.659 19.2891 192.177 20.0117C192.694 20.7246 193.437 21.0811 194.403 21.0811C194.862 21.0811 195.253 21.0078 195.575 20.8613C195.907 20.7148 196.195 20.5537 196.439 20.3779C196.693 20.2021 196.923 20.041 197.128 19.8945C197.333 19.748 197.543 19.6748 197.758 19.6748C197.875 19.6748 197.992 19.7139 198.109 19.792C198.227 19.8604 198.329 19.9531 198.417 20.0703C198.515 20.1777 198.593 20.2998 198.651 20.4365C198.72 20.5732 198.754 20.71 198.754 20.8467C198.754 21.1689 198.593 21.501 198.271 21.8428C197.958 22.1846 197.553 22.4971 197.055 22.7803C196.557 23.0537 196 23.2783 195.385 23.4541C194.779 23.6299 194.188 23.7178 193.612 23.7178C192.841 23.7178 192.133 23.5664 191.488 23.2637C190.844 22.9707 190.287 22.5605 189.818 22.0332C189.35 21.4961 188.983 20.8564 188.72 20.1143C188.466 19.3721 188.339 18.5518 188.339 17.6533C188.339 16.6768 188.48 15.7783 188.764 14.958C189.057 14.1377 189.457 13.4297 189.965 12.834C190.482 12.2285 191.093 11.7598 191.796 11.4277C192.499 11.0859 193.266 10.915 194.096 10.915Z" fill="black"/>
<path d="M195.037 5.69302C195.958 5.22199 196.269 5.87864 196.269 6.81709C196.269 7.27089 195.659 7.95434 195.028 8.53922C194.203 9.30487 192.428 9.67756 192.428 8.55199V8.55199C192.428 7.75555 194.116 6.16405 195.037 5.69302Z" fill="black"/>
</svg>
