<svg xmlns="http://www.w3.org/2000/svg" height="682.667" viewBox="0 0 512 512" width="682.667" xmlns:v="https://vecta.io/nano"><path d="M256 0C114.637 0 0 114.637 0 256s114.637 256 256 256 256-114.637 256-256S397.363 0 256 0zm-74.391 387h-62.348V199.426h62.348zm-31.172-213.187h-.406c-20.922 0-34.453-14.402-34.453-32.402 0-18.406 13.945-32.41 35.273-32.41s34.453 14.004 34.859 32.41c0 18-13.531 32.402-35.273 32.402zM406.422 387h-62.34V286.652c0-25.219-9.027-42.418-31.586-42.418-17.223 0-27.48 11.602-31.988 22.801-1.648 4.008-2.051 9.609-2.051 15.215V387h-62.344V199.426h62.344v26.559c8.285-12.781 23.109-30.961 56.188-30.961 41.02 0 71.777 26.809 71.777 84.422zm0 0"/></svg>