<svg width="48" height="50" viewBox="0 0 48 50" fill="none" xmlns="http://www.w3.org/2000/svg">
<mask id="path-1-inside-1" fill="white">
<path d="M0.245819 26.0321C0.311014 32.2293 2.83538 38.1468 7.26358 42.4828C11.6918 46.8188 17.6611 49.2181 23.8583 49.1529C30.0555 49.0877 35.973 46.5634 40.309 42.1352C44.645 37.707 47.0444 31.7377 46.9792 25.5404L39.0591 25.6238C39.1022 29.7204 37.5161 33.6665 34.6498 36.5937C31.7835 39.521 27.8717 41.1897 23.775 41.2328C19.6783 41.2759 15.7323 39.6899 12.805 36.8235C9.87775 33.9572 8.20901 30.0454 8.16592 25.9487L0.245819 26.0321Z"/>
</mask>
<path d="M0.245819 26.0321C0.311014 32.2293 2.83538 38.1468 7.26358 42.4828C11.6918 46.8188 17.6611 49.2181 23.8583 49.1529C30.0555 49.0877 35.973 46.5634 40.309 42.1352C44.645 37.707 47.0444 31.7377 46.9792 25.5404L39.0591 25.6238C39.1022 29.7204 37.5161 33.6665 34.6498 36.5937C31.7835 39.521 27.8717 41.1897 23.775 41.2328C19.6783 41.2759 15.7323 39.6899 12.805 36.8235C9.87775 33.9572 8.20901 30.0454 8.16592 25.9487L0.245819 26.0321Z" stroke="black" stroke-width="2" mask="url(#path-1-inside-1)"/>
<mask id="path-2-inside-2" fill="white">
<path d="M0.245819 23.3667C0.311014 17.1694 2.83538 11.2519 7.26358 6.91594C11.6918 2.57994 17.6611 0.180625 23.8583 0.24582C30.0555 0.311015 35.973 2.83538 40.309 7.26358C44.645 11.6918 47.0444 17.6611 46.9792 23.8583L39.0591 23.775C39.1022 19.6783 37.5161 15.7323 34.6498 12.805C31.7835 9.87775 27.8717 8.20902 23.775 8.16592C19.6783 8.12282 15.7323 9.70889 12.805 12.5752C9.87775 15.4415 8.20901 19.3533 8.16592 23.45L0.245819 23.3667Z"/>
</mask>
<path d="M0.245819 23.3667C0.311014 17.1694 2.83538 11.2519 7.26358 6.91594C11.6918 2.57994 17.6611 0.180625 23.8583 0.24582C30.0555 0.311015 35.973 2.83538 40.309 7.26358C44.645 11.6918 47.0444 17.6611 46.9792 23.8583L39.0591 23.775C39.1022 19.6783 37.5161 15.7323 34.6498 12.805C31.7835 9.87775 27.8717 8.20902 23.775 8.16592C19.6783 8.12282 15.7323 9.70889 12.805 12.5752C9.87775 15.4415 8.20901 19.3533 8.16592 23.45L0.245819 23.3667Z" fill="#4A5AE3" stroke="black" stroke-width="2" mask="url(#path-2-inside-2)"/>
<path d="M14.8926 31.6846C14.8926 31.3623 14.8779 30.9424 14.8486 30.4248C14.8291 29.9072 14.7998 29.3359 14.7607 28.7109C14.7217 28.0859 14.6777 27.4219 14.6289 26.7188C14.5801 26.0156 14.5264 25.3174 14.4678 24.624C14.4092 23.9307 14.3506 23.2617 14.292 22.6172C14.2432 21.9629 14.1943 21.3721 14.1455 20.8447C14.0674 20.0928 13.96 19.541 13.8232 19.1895C13.6865 18.8379 13.4619 18.6621 13.1494 18.6621C12.8564 18.6621 12.6611 18.7451 12.5635 18.9111C12.4756 19.0771 12.4219 19.2822 12.4023 19.5264C12.3926 19.7705 12.3877 20.0391 12.3877 20.332C12.3975 20.6152 12.3535 20.8789 12.2559 21.123C12.168 21.3672 11.9971 21.5723 11.7432 21.7383C11.4893 21.9043 11.0986 21.9873 10.5713 21.9873C10.2002 21.9873 9.88281 21.8359 9.61914 21.5332C9.35547 21.2207 9.22363 20.7715 9.22363 20.1855C9.22363 19.3652 9.46777 18.623 9.95605 17.959C10.4346 17.2852 11.1133 16.7139 11.9922 16.2451C12.8711 15.7666 13.9307 15.3955 15.1709 15.1318C16.4111 14.8682 17.7881 14.7363 19.3018 14.7363C20.3857 14.7363 21.3867 14.8584 22.3047 15.1025C23.2227 15.3369 24.0137 15.6689 24.6777 16.0986C25.3516 16.5186 25.8789 17.0215 26.2598 17.6074C26.6406 18.1836 26.8311 18.8135 26.8311 19.4971C26.8311 20.2686 26.6064 21.0059 26.1572 21.709C25.708 22.4121 25.0879 23.0566 24.2969 23.6426C23.5156 24.2285 22.5928 24.7412 21.5283 25.1807C20.4639 25.6104 19.3213 25.9473 18.1006 26.1914C17.7588 26.25 17.5879 26.46 17.5879 26.8213C17.5879 27.0654 17.6025 27.373 17.6318 27.7441C17.6709 28.1055 17.7051 28.4863 17.7344 28.8867C17.7734 29.2871 17.8076 29.6826 17.8369 30.0732C17.876 30.4639 17.8955 30.8105 17.8955 31.1133C17.8955 31.6602 17.7686 32.0508 17.5146 32.2852C17.2607 32.5195 16.8848 32.6367 16.3867 32.6367C15.918 32.6367 15.5518 32.5537 15.2881 32.3877C15.0244 32.2314 14.8926 31.9971 14.8926 31.6846ZM23.7988 19.9219C23.7988 19.5898 23.6572 19.2725 23.374 18.9697C23.0908 18.667 22.71 18.3984 22.2314 18.1641C21.7529 17.9297 21.1963 17.7441 20.5615 17.6074C19.9365 17.4707 19.2773 17.4023 18.584 17.4023C18.2422 17.4023 17.9541 17.417 17.7197 17.4463C17.4951 17.4658 17.3145 17.5049 17.1777 17.5635C17.041 17.6221 16.9434 17.7002 16.8848 17.7979C16.8359 17.8857 16.8115 18.0029 16.8115 18.1494C16.8115 18.2471 16.8262 18.4766 16.8555 18.8379C16.8848 19.1895 16.9238 19.5996 16.9727 20.0684C17.0215 20.5371 17.0703 21.0303 17.1191 21.5479C17.1777 22.0557 17.2363 22.5146 17.2949 22.9248C17.3242 23.2275 17.3633 23.4277 17.4121 23.5254C17.4707 23.623 17.5586 23.6719 17.6758 23.6719C18.0078 23.6719 18.3887 23.6182 18.8184 23.5107C19.248 23.3936 19.6875 23.2422 20.1367 23.0566C20.5957 22.8613 21.04 22.6416 21.4697 22.3975C21.9092 22.1436 22.2998 21.8799 22.6416 21.6064C22.9932 21.3232 23.2715 21.04 23.4766 20.7568C23.6914 20.4639 23.7988 20.1855 23.7988 19.9219ZM28.9258 35.0098C29.1797 35.0098 29.3896 34.9707 29.5557 34.8926C29.7217 34.8242 29.8535 34.6924 29.9512 34.4971C30.0488 34.3018 30.1172 34.0381 30.1562 33.7061C30.1953 33.374 30.2148 32.9492 30.2148 32.4316C30.2148 30.4297 30.1416 28.7061 29.9951 27.2607C29.8584 25.8154 29.707 24.5947 29.541 23.5986C29.375 22.6025 29.2188 21.8066 29.0723 21.2109C28.9355 20.6055 28.8672 20.1465 28.8672 19.834C28.8672 19.502 29.0186 19.2334 29.3213 19.0283C29.624 18.8232 30.0391 18.7109 30.5664 18.6914C31.3184 18.6914 31.7725 18.9111 31.9287 19.3506C32.1338 20.0439 32.3193 20.8447 32.4854 21.7529C32.6611 22.6514 32.8076 23.623 32.9248 24.668C33.0518 25.7129 33.1445 26.8066 33.2031 27.9492C33.2715 29.082 33.3057 30.2246 33.3057 31.377C33.3057 32.5977 33.2324 33.623 33.0859 34.4531C32.9492 35.293 32.71 35.9668 32.3682 36.4746C32.0361 36.9824 31.5967 37.3438 31.0498 37.5586C30.5029 37.7832 29.8242 37.8955 29.0137 37.8955C28.5352 37.8955 28.0322 37.832 27.5049 37.7051C26.9873 37.5879 26.4795 37.4268 25.9814 37.2217C25.4834 37.0264 25.0146 36.792 24.5752 36.5186C24.126 36.2451 23.7354 35.957 23.4033 35.6543C23.0615 35.3613 22.793 35.0586 22.5977 34.7461C22.3926 34.4336 22.29 34.1309 22.29 33.8379C22.29 33.6914 22.3486 33.5254 22.4658 33.3398C22.583 33.1543 22.7295 32.9785 22.9053 32.8125C23.0713 32.6562 23.252 32.5244 23.4473 32.417C23.6426 32.3096 23.8184 32.2559 23.9746 32.2559C24.1602 32.2559 24.3555 32.3242 24.5605 32.4609C24.7559 32.5977 24.9707 32.7686 25.2051 32.9736C25.4297 33.1787 25.6738 33.3984 25.9375 33.6328C26.1914 33.8672 26.4697 34.0869 26.7725 34.292C27.085 34.4971 27.417 34.668 27.7686 34.8047C28.1201 34.9414 28.5059 35.0098 28.9258 35.0098ZM30.8447 16.2598C30.5615 16.25 30.2979 16.2012 30.0537 16.1133C29.8193 16.0254 29.6143 15.9082 29.4385 15.7617C29.2627 15.6055 29.1211 15.4297 29.0137 15.2344C28.916 15.0293 28.8672 14.8096 28.8672 14.5752C28.8672 14.165 29.0234 13.833 29.3359 13.5791C29.6484 13.3252 30.0684 13.1982 30.5957 13.1982C30.8594 13.1982 31.1084 13.2471 31.3428 13.3447C31.5869 13.4326 31.8018 13.5596 31.9873 13.7256C32.1729 13.8818 32.3193 14.0674 32.4268 14.2822C32.5342 14.4873 32.5879 14.707 32.5879 14.9414C32.5879 15.3613 32.4365 15.6885 32.1338 15.9229C31.8311 16.1475 31.4014 16.2598 30.8447 16.2598Z" fill="black"/>
</svg>
