<svg width="199" height="21" viewBox="0 0 199 21" fill="none" xmlns="http://www.w3.org/2000/svg">
<path d="M5.66895 19.7754C5.66895 19.4531 5.6543 19.0332 5.625 18.5156C5.60547 17.998 5.57617 17.4268 5.53711 16.8018C5.49805 16.1768 5.4541 15.5127 5.40527 14.8096C5.35645 14.1064 5.30273 13.4082 5.24414 12.7148C5.18555 12.0215 5.12695 11.3525 5.06836 10.708C5.01953 10.0537 4.9707 9.46289 4.92188 8.93555C4.84375 8.18359 4.73633 7.63184 4.59961 7.28027C4.46289 6.92871 4.23828 6.75293 3.92578 6.75293C3.63281 6.75293 3.4375 6.83594 3.33984 7.00195C3.25195 7.16797 3.19824 7.37305 3.17871 7.61719C3.16895 7.86133 3.16406 8.12988 3.16406 8.42285C3.17383 8.70605 3.12988 8.96973 3.03223 9.21387C2.94434 9.45801 2.77344 9.66309 2.51953 9.8291C2.26562 9.99512 1.875 10.0781 1.34766 10.0781C0.976562 10.0781 0.65918 9.92676 0.395508 9.62402C0.131836 9.31152 0 8.8623 0 8.27637C0 7.45605 0.244141 6.71387 0.732422 6.0498C1.21094 5.37598 1.88965 4.80469 2.76855 4.33594C3.64746 3.85742 4.70703 3.48633 5.94727 3.22266C7.1875 2.95898 8.56445 2.82715 10.0781 2.82715C11.1621 2.82715 12.1631 2.94922 13.0811 3.19336C13.999 3.42773 14.79 3.75977 15.4541 4.18945C16.1279 4.60938 16.6553 5.1123 17.0361 5.69824C17.417 6.27441 17.6074 6.9043 17.6074 7.58789C17.6074 8.35938 17.3828 9.09668 16.9336 9.7998C16.4844 10.5029 15.8643 11.1475 15.0732 11.7334C14.292 12.3193 13.3691 12.832 12.3047 13.2715C11.2402 13.7012 10.0977 14.0381 8.87695 14.2822C8.53516 14.3408 8.36426 14.5508 8.36426 14.9121C8.36426 15.1562 8.37891 15.4639 8.4082 15.835C8.44727 16.1963 8.48145 16.5771 8.51074 16.9775C8.5498 17.3779 8.58398 17.7734 8.61328 18.1641C8.65234 18.5547 8.67188 18.9014 8.67188 19.2041C8.67188 19.751 8.54492 20.1416 8.29102 20.376C8.03711 20.6104 7.66113 20.7275 7.16309 20.7275C6.69434 20.7275 6.32812 20.6445 6.06445 20.4785C5.80078 20.3223 5.66895 20.0879 5.66895 19.7754ZM14.5752 8.0127C14.5752 7.68066 14.4336 7.36328 14.1504 7.06055C13.8672 6.75781 13.4863 6.48926 13.0078 6.25488C12.5293 6.02051 11.9727 5.83496 11.3379 5.69824C10.7129 5.56152 10.0537 5.49316 9.36035 5.49316C9.01855 5.49316 8.73047 5.50781 8.49609 5.53711C8.27148 5.55664 8.09082 5.5957 7.9541 5.6543C7.81738 5.71289 7.71973 5.79102 7.66113 5.88867C7.6123 5.97656 7.58789 6.09375 7.58789 6.24023C7.58789 6.33789 7.60254 6.56738 7.63184 6.92871C7.66113 7.28027 7.7002 7.69043 7.74902 8.15918C7.79785 8.62793 7.84668 9.12109 7.89551 9.63867C7.9541 10.1465 8.0127 10.6055 8.07129 11.0156C8.10059 11.3184 8.13965 11.5186 8.18848 11.6162C8.24707 11.7139 8.33496 11.7627 8.45215 11.7627C8.78418 11.7627 9.16504 11.709 9.59473 11.6016C10.0244 11.4844 10.4639 11.333 10.9131 11.1475C11.3721 10.9521 11.8164 10.7324 12.2461 10.4883C12.6855 10.2344 13.0762 9.9707 13.418 9.69727C13.7695 9.41406 14.0479 9.13086 14.2529 8.84766C14.4678 8.55469 14.5752 8.27637 14.5752 8.0127Z" fill="white"/>
<path d="M27.7441 5.28809C28.2812 5.28809 28.7988 5.37109 29.2969 5.53711C29.7949 5.70312 30.2344 5.93262 30.6152 6.22559C30.9961 6.51855 31.2988 6.87012 31.5234 7.28027C31.7578 7.69043 31.875 8.14453 31.875 8.64258C31.875 8.84766 31.8262 9.04785 31.7285 9.24316C31.6406 9.42871 31.5186 9.59473 31.3623 9.74121C31.2061 9.87793 31.0254 9.99023 30.8203 10.0781C30.625 10.1562 30.4199 10.1953 30.2051 10.1953C30.1855 10.1953 30.166 10.2002 30.1465 10.21C30.1367 10.21 30.1221 10.21 30.1025 10.21C30.083 10.2197 30.0635 10.2246 30.0439 10.2246L30.1025 11.3965C30.1416 12.793 30.3369 13.8135 30.6885 14.458C31.0498 15.1025 31.5186 15.4248 32.0947 15.4248C32.2998 15.4248 32.4805 15.4053 32.6367 15.3662C32.8027 15.3271 32.9541 15.2832 33.0908 15.2344C33.2373 15.1758 33.374 15.127 33.501 15.0879C33.6279 15.0488 33.7549 15.0293 33.8818 15.0293C34.1064 15.0293 34.3018 15.127 34.4678 15.3223C34.6436 15.5176 34.7314 15.752 34.7314 16.0254C34.7314 16.2988 34.624 16.5723 34.4092 16.8457C34.2041 17.1191 33.9307 17.3682 33.5889 17.5928C33.2471 17.8076 32.8613 17.9834 32.4316 18.1201C32.002 18.2568 31.5674 18.3252 31.1279 18.3252C30.3662 18.3252 29.6973 18.0127 29.1211 17.3877C28.5449 16.7529 28.1348 15.8252 27.8906 14.6045C27.832 14.4092 27.7539 14.3115 27.6562 14.3115C27.5391 14.3115 27.4365 14.3701 27.3486 14.4873C26.3818 15.708 25.3516 16.626 24.2578 17.2412C23.1641 17.8467 22.085 18.1494 21.0205 18.1494C20.5225 18.1494 20.0732 18.0762 19.6729 17.9297C19.2725 17.7832 18.9307 17.5781 18.6475 17.3145C18.374 17.041 18.1592 16.7139 18.0029 16.333C17.8564 15.9424 17.7832 15.5078 17.7832 15.0293C17.7832 14.3555 17.9297 13.6475 18.2227 12.9053C18.5254 12.1631 18.9307 11.4307 19.4385 10.708C19.9463 9.98535 20.5322 9.29688 21.1963 8.64258C21.8701 7.98828 22.5732 7.41211 23.3057 6.91406C24.0479 6.41602 24.7998 6.02051 25.5615 5.72754C26.3232 5.43457 27.0508 5.28809 27.7441 5.28809ZM27.2607 10.3564C27.4365 10.0244 27.5977 9.78516 27.7441 9.63867C27.8906 9.48242 28.1006 9.37988 28.374 9.33105C28.5889 9.30176 28.6963 9.2334 28.6963 9.12598C28.6963 9.04785 28.667 8.96484 28.6084 8.87695C28.4229 8.62305 28.2275 8.40332 28.0225 8.21777C27.8174 8.02246 27.5439 7.9248 27.2021 7.9248C26.8311 7.9248 26.416 8.03223 25.957 8.24707C25.498 8.46191 25.0293 8.75 24.5508 9.11133C24.082 9.46289 23.6182 9.86816 23.1592 10.3271C22.71 10.7764 22.3096 11.2402 21.958 11.7188C21.6064 12.1973 21.3232 12.6709 21.1084 13.1396C20.8936 13.6084 20.7861 14.0283 20.7861 14.3994C20.7861 14.7314 20.874 14.9902 21.0498 15.1758C21.2354 15.3613 21.4844 15.4541 21.7969 15.4541C22.5977 15.4541 23.4717 15.0293 24.4189 14.1797C25.3662 13.3301 26.3135 12.0557 27.2607 10.3564Z" fill="white"/>
<path d="M43.0518 6.78223C43.0811 6.50879 43.1152 6.28418 43.1543 6.1084C43.2031 5.92285 43.2715 5.77637 43.3594 5.66895C43.457 5.55176 43.5791 5.46875 43.7256 5.41992C43.8721 5.37109 44.0576 5.34668 44.2822 5.34668C44.9951 5.34668 45.5176 5.4541 45.8496 5.66895C46.1914 5.87402 46.3623 6.20605 46.3623 6.66504C46.3623 6.75293 46.3428 6.94824 46.3037 7.25098C46.2744 7.54395 46.2305 7.91016 46.1719 8.34961C46.1133 8.7793 46.0449 9.25781 45.9668 9.78516C45.8984 10.3027 45.8301 10.8301 45.7617 11.3672C45.5859 12.6172 45.3857 14.0186 45.1611 15.5713C45.0244 16.4893 44.751 17.1484 44.3408 17.5488C43.9404 17.9492 43.3447 18.1494 42.5537 18.1494C41.958 18.1494 41.3428 17.998 40.708 17.6953C40.0732 17.3926 39.458 16.9824 38.8623 16.4648C38.2666 15.9473 37.7002 15.3467 37.1631 14.6631C36.6357 13.9697 36.1719 13.2373 35.7715 12.4658C35.3711 11.6846 35.0537 10.8887 34.8193 10.0781C34.5947 9.26758 34.4824 8.47656 34.4824 7.70508C34.4824 6.83594 34.6045 6.18652 34.8486 5.75684C35.1025 5.31738 35.5371 5.09766 36.1523 5.09766C36.582 5.09766 36.9385 5.12695 37.2217 5.18555C37.5049 5.23438 37.7295 5.32715 37.8955 5.46387C38.0713 5.59082 38.1934 5.76172 38.2617 5.97656C38.3398 6.19141 38.3789 6.45996 38.3789 6.78223C38.3789 6.99707 38.3691 7.21191 38.3496 7.42676C38.3301 7.6416 38.3203 7.85645 38.3203 8.07129C38.3203 8.56934 38.3691 9.0918 38.4668 9.63867C38.5742 10.1758 38.7158 10.7031 38.8916 11.2207C39.0674 11.7383 39.2725 12.2314 39.5068 12.7002C39.7412 13.1592 39.9902 13.5645 40.2539 13.916C40.5176 14.2676 40.7812 14.5459 41.0449 14.751C41.3184 14.9561 41.582 15.0586 41.8359 15.0586C42.0117 15.0586 42.1436 15 42.2314 14.8828C42.3291 14.7656 42.3926 14.5654 42.4219 14.2822L43.0518 6.78223Z" fill="white"/>
<path d="M47.666 1.40625C47.666 0.898438 47.8125 0.537109 48.1055 0.322266C48.3984 0.107422 48.8818 0 49.5557 0C49.79 0 49.9951 0.0244141 50.1709 0.0732422C50.3467 0.12207 50.4932 0.205078 50.6104 0.322266C50.7275 0.429688 50.8203 0.581055 50.8887 0.776367C50.9668 0.961914 51.0303 1.20117 51.0791 1.49414C51.2061 2.36328 51.333 3.27637 51.46 4.2334C51.5967 5.18066 51.7236 6.12793 51.8408 7.0752C51.9678 8.0127 52.085 8.93066 52.1924 9.8291C52.2998 10.7178 52.3926 11.5479 52.4707 12.3193C52.5586 13.0811 52.6221 13.7598 52.6611 14.3555C52.71 14.9414 52.7344 15.4053 52.7344 15.7471C52.7344 16.0986 52.7002 16.3965 52.6318 16.6406C52.5732 16.8848 52.4658 17.0801 52.3096 17.2266C52.1631 17.373 51.9678 17.4805 51.7236 17.5488C51.4893 17.6074 51.1963 17.6367 50.8447 17.6367C50.5029 17.6367 50.2295 17.5488 50.0244 17.373C49.8291 17.1973 49.7314 16.9287 49.7314 16.5674C49.7314 16.1963 49.7021 15.7031 49.6436 15.0879C49.585 14.4629 49.5068 13.7695 49.4092 13.0078C49.3115 12.2461 49.1992 11.4355 49.0723 10.5762C48.9551 9.7168 48.8281 8.86719 48.6914 8.02734C48.5645 7.1875 48.4375 6.38184 48.3105 5.61035C48.1934 4.8291 48.0859 4.14062 47.9883 3.54492C47.8906 2.93945 47.8125 2.44629 47.7539 2.06543C47.6953 1.6748 47.666 1.45508 47.666 1.40625Z" fill="white"/>
<path d="M67.5439 14.8828C67.8271 14.6387 68.1055 14.5166 68.3789 14.5166C68.5352 14.5166 68.6768 14.5557 68.8037 14.6338C68.9307 14.7119 69.0723 14.834 69.2285 15C69.375 15.2246 69.4775 15.4102 69.5361 15.5566C69.6045 15.6934 69.6387 15.8301 69.6387 15.9668C69.6387 16.2598 69.4922 16.5381 69.1992 16.8018C68.7305 17.1924 68.2227 17.5439 67.6758 17.8564C67.1289 18.1592 66.5576 18.418 65.9619 18.6328C65.3662 18.8477 64.751 19.0088 64.1162 19.1162C63.4814 19.2334 62.8516 19.292 62.2266 19.292C61.4355 19.292 60.6934 19.1895 60 18.9844C59.3066 18.7891 58.6865 18.5059 58.1396 18.1348C57.6025 17.7637 57.1484 17.3193 56.7773 16.8018C56.4062 16.2744 56.1426 15.6836 55.9863 15.0293C55.8984 14.7559 55.8154 14.5801 55.7373 14.502C55.6689 14.4141 55.5518 14.3701 55.3857 14.3701C55.0244 14.3701 54.7461 14.2822 54.5508 14.1064C54.3555 13.9307 54.2578 13.6768 54.2578 13.3447C54.2578 13.208 54.2676 13.1201 54.2871 13.0811L54.3164 12.7881C54.3652 12.4365 54.458 12.1826 54.5947 12.0264C54.7412 11.8701 54.9658 11.792 55.2686 11.792H55.4883C55.8984 11.792 56.1865 11.6016 56.3525 11.2207C56.6553 10.5469 57.041 9.93164 57.5098 9.375C57.9785 8.81836 58.5059 8.34473 59.0918 7.9541C59.6777 7.55371 60.3027 7.24609 60.9668 7.03125C61.6406 6.80664 62.3242 6.69434 63.0176 6.69434C63.7402 6.69434 64.4141 6.80176 65.0391 7.0166C65.6738 7.22168 66.2256 7.50977 66.6943 7.88086C67.1631 8.25195 67.5293 8.68652 67.793 9.18457C68.0664 9.68262 68.2031 10.2197 68.2031 10.7959C68.2031 11.1963 68.125 11.5625 67.9688 11.8945C67.8125 12.2266 67.5879 12.5195 67.2949 12.7734C67.002 13.0176 66.6455 13.2178 66.2256 13.374C65.8154 13.5303 65.3467 13.6328 64.8193 13.6816L59.7363 14.1943C59.541 14.1943 59.3799 14.2432 59.2529 14.3408C59.1357 14.4385 59.0771 14.5703 59.0771 14.7363C59.0771 14.9902 59.1699 15.2344 59.3555 15.4688C59.5508 15.7031 59.8047 15.9131 60.1172 16.0986C60.4395 16.2744 60.8057 16.416 61.2158 16.5234C61.6357 16.6309 62.0654 16.6846 62.5049 16.6846C62.9248 16.6846 63.3545 16.6455 63.7939 16.5674C64.2432 16.4795 64.6826 16.3574 65.1123 16.2012C65.5518 16.0449 65.9766 15.8594 66.3867 15.6445C66.7969 15.4199 67.1826 15.166 67.5439 14.8828ZM64.2773 11.1035C64.4238 11.0742 64.5508 11.0059 64.6582 10.8984C64.7656 10.7812 64.8193 10.6396 64.8193 10.4736C64.8193 10.3271 64.7656 10.1904 64.6582 10.0635C64.5508 9.93652 64.4043 9.82422 64.2188 9.72656C64.0332 9.61914 63.8184 9.53613 63.5742 9.47754C63.3301 9.41895 63.0713 9.38965 62.7979 9.38965C62.3975 9.38965 61.9873 9.44824 61.5674 9.56543C61.1475 9.68262 60.7666 9.83887 60.4248 10.0342C60.083 10.2197 59.8047 10.4297 59.5898 10.6641C59.375 10.8887 59.2676 11.1133 59.2676 11.3379C59.2676 11.5625 59.4043 11.6748 59.6777 11.6748C59.8438 11.6748 60.1123 11.6553 60.4834 11.6162C60.8545 11.5771 61.2646 11.5332 61.7139 11.4844C62.1631 11.4258 62.6172 11.3623 63.0762 11.2939C63.5352 11.2256 63.9355 11.1621 64.2773 11.1035Z" fill="white"/>
<path d="M78.8525 6.24023C78.6572 6.2207 78.4717 6.15723 78.2959 6.0498C78.1201 5.94238 77.9639 5.80566 77.8271 5.63965C77.7002 5.46387 77.5977 5.27344 77.5195 5.06836C77.4414 4.85352 77.4023 4.63379 77.4023 4.40918C77.4023 4.12598 77.4707 3.90137 77.6074 3.73535C77.7539 3.56934 77.9395 3.48633 78.1641 3.48633C78.291 3.48633 78.4961 3.50098 78.7793 3.53027C79.0625 3.55957 79.3945 3.59863 79.7754 3.64746C80.166 3.68652 80.5859 3.73535 81.0352 3.79395C81.4941 3.84277 81.958 3.8916 82.4268 3.94043C82.9053 3.97949 83.374 4.01367 83.833 4.04297C84.292 4.07227 84.7217 4.08691 85.1221 4.08691C85.3467 4.08691 85.5469 4.0625 85.7227 4.01367C85.9082 3.95508 86.0986 3.86719 86.2939 3.75C86.6357 3.50586 87.0264 3.31543 87.4658 3.17871C87.915 3.04199 88.3838 2.97363 88.8721 2.97363C89.3506 2.97363 89.8584 3.06152 90.3955 3.2373C90.9326 3.40332 91.4258 3.61816 91.875 3.88184C92.334 4.13574 92.71 4.41895 93.0029 4.73145C93.3057 5.04395 93.457 5.33691 93.457 5.61035C93.457 5.8252 93.4082 6.00586 93.3105 6.15234C93.2227 6.29883 93.0566 6.4209 92.8125 6.51855C92.5684 6.60645 92.2314 6.68457 91.8018 6.75293C91.3818 6.81152 90.8447 6.86035 90.1904 6.89941C89.9658 6.91895 89.7998 6.9873 89.6924 7.10449C89.585 7.21191 89.5312 7.36328 89.5312 7.55859C89.5312 7.73438 89.5752 8.03711 89.6631 8.4668C89.7607 8.88672 89.8633 9.40918 89.9707 10.0342C90.0879 10.6494 90.1904 11.3574 90.2783 12.1582C90.376 12.9492 90.4248 13.7988 90.4248 14.707C90.4248 15.6348 90.293 16.4795 90.0293 17.2412C89.7754 17.9932 89.4092 18.6377 88.9307 19.1748C88.4521 19.7119 87.876 20.1221 87.2021 20.4053C86.5283 20.6982 85.7764 20.8447 84.9463 20.8447C84.2139 20.8447 83.501 20.7373 82.8076 20.5225C82.124 20.3076 81.4795 20.0098 80.874 19.6289C80.2686 19.248 79.7119 18.7891 79.2041 18.252C78.7061 17.7148 78.2764 17.124 77.915 16.4795C77.5537 15.835 77.2705 15.1465 77.0654 14.4141C76.8701 13.6816 76.7725 12.9248 76.7725 12.1436C76.7725 11.7822 76.8799 11.4844 77.0947 11.25C77.3096 11.0059 77.583 10.8838 77.915 10.8838C78.2178 10.8838 78.5059 10.918 78.7793 10.9863C79.0527 11.0547 79.2871 11.1523 79.4824 11.2793C79.6875 11.4062 79.8486 11.5527 79.9658 11.7188C80.083 11.8848 80.1416 12.0605 80.1416 12.2461C80.1416 13.0371 80.2832 13.7939 80.5664 14.5166C80.8594 15.2393 81.25 15.874 81.7383 16.4209C82.2266 16.9678 82.793 17.4023 83.4375 17.7246C84.082 18.0469 84.7607 18.208 85.4736 18.208C86.1084 18.208 86.5967 17.9736 86.9385 17.5049C87.29 17.0264 87.4658 16.3428 87.4658 15.4541C87.4658 14.3311 87.373 13.1396 87.1875 11.8799C87.002 10.6104 86.7236 9.22852 86.3525 7.73438C86.2061 7.20703 85.9131 6.92871 85.4736 6.89941C84.3018 6.84082 83.1641 6.75781 82.0605 6.65039C80.957 6.54297 79.8877 6.40625 78.8525 6.24023Z" fill="white"/>
<path d="M93.7939 13.2275C93.7939 13.0615 93.8135 12.876 93.8525 12.6709C93.8916 12.4658 93.9111 12.2412 93.9111 11.9971C93.9111 11.8311 93.8379 11.7041 93.6914 11.6162C93.5547 11.5283 93.3984 11.4307 93.2227 11.3232C93.0469 11.2158 92.8857 11.0791 92.7393 10.9131C92.6025 10.7471 92.5342 10.5078 92.5342 10.1953C92.5342 9.9707 92.5928 9.74609 92.71 9.52148C92.8369 9.29688 93.0176 9.0918 93.252 8.90625C93.8281 8.47656 94.4238 8.09082 95.0391 7.74902C95.6641 7.40723 96.2842 7.11914 96.8994 6.88477C97.5244 6.65039 98.1396 6.46973 98.7451 6.34277C99.3506 6.21582 99.9316 6.15234 100.488 6.15234C101.426 6.15234 102.305 6.32812 103.125 6.67969C103.955 7.02148 104.673 7.49512 105.278 8.10059C105.894 8.69629 106.377 9.39941 106.729 10.21C107.09 11.0107 107.271 11.8701 107.271 12.7881C107.271 13.6865 107.08 14.541 106.699 15.3516C106.328 16.1523 105.825 16.8555 105.19 17.4609C104.556 18.0664 103.809 18.5449 102.949 18.8965C102.1 19.2578 101.201 19.4385 100.254 19.4385C99.3262 19.4385 98.4668 19.2822 97.6758 18.9697C96.8848 18.6572 96.2012 18.2275 95.625 17.6807C95.0488 17.124 94.5996 16.4697 94.2773 15.7178C93.9551 14.9561 93.7939 14.126 93.7939 13.2275ZM100.576 16.8018C100.986 16.8018 101.411 16.7188 101.851 16.5527C102.29 16.3867 102.69 16.1475 103.052 15.835C103.423 15.5127 103.726 15.1221 103.96 14.6631C104.204 14.2041 104.326 13.6865 104.326 13.1104C104.326 12.5244 104.219 11.9775 104.004 11.4697C103.789 10.9619 103.491 10.5225 103.11 10.1514C102.739 9.77051 102.295 9.47266 101.777 9.25781C101.27 9.04297 100.718 8.93555 100.122 8.93555C99.0381 8.93555 98.208 9.21875 97.6318 9.78516C97.0557 10.3418 96.7676 11.2012 96.7676 12.3633C96.7676 12.998 96.8604 13.5889 97.0459 14.1357C97.2412 14.6729 97.5098 15.1416 97.8516 15.542C98.1934 15.9326 98.5938 16.2402 99.0527 16.4648C99.5215 16.6895 100.029 16.8018 100.576 16.8018Z" fill="white"/>
<path d="M117.026 6.78223C117.056 6.50879 117.09 6.28418 117.129 6.1084C117.178 5.92285 117.246 5.77637 117.334 5.66895C117.432 5.55176 117.554 5.46875 117.7 5.41992C117.847 5.37109 118.032 5.34668 118.257 5.34668C118.97 5.34668 119.492 5.4541 119.824 5.66895C120.166 5.87402 120.337 6.20605 120.337 6.66504C120.337 6.75293 120.317 6.94824 120.278 7.25098C120.249 7.54395 120.205 7.91016 120.146 8.34961C120.088 8.7793 120.02 9.25781 119.941 9.78516C119.873 10.3027 119.805 10.8301 119.736 11.3672C119.561 12.6172 119.36 14.0186 119.136 15.5713C118.999 16.4893 118.726 17.1484 118.315 17.5488C117.915 17.9492 117.319 18.1494 116.528 18.1494C115.933 18.1494 115.317 17.998 114.683 17.6953C114.048 17.3926 113.433 16.9824 112.837 16.4648C112.241 15.9473 111.675 15.3467 111.138 14.6631C110.61 13.9697 110.146 13.2373 109.746 12.4658C109.346 11.6846 109.028 10.8887 108.794 10.0781C108.569 9.26758 108.457 8.47656 108.457 7.70508C108.457 6.83594 108.579 6.18652 108.823 5.75684C109.077 5.31738 109.512 5.09766 110.127 5.09766C110.557 5.09766 110.913 5.12695 111.196 5.18555C111.479 5.23438 111.704 5.32715 111.87 5.46387C112.046 5.59082 112.168 5.76172 112.236 5.97656C112.314 6.19141 112.354 6.45996 112.354 6.78223C112.354 6.99707 112.344 7.21191 112.324 7.42676C112.305 7.6416 112.295 7.85645 112.295 8.07129C112.295 8.56934 112.344 9.0918 112.441 9.63867C112.549 10.1758 112.69 10.7031 112.866 11.2207C113.042 11.7383 113.247 12.2314 113.481 12.7002C113.716 13.1592 113.965 13.5645 114.229 13.916C114.492 14.2676 114.756 14.5459 115.02 14.751C115.293 14.9561 115.557 15.0586 115.811 15.0586C115.986 15.0586 116.118 15 116.206 14.8828C116.304 14.7656 116.367 14.5654 116.396 14.2822L117.026 6.78223Z" fill="white"/>
<path d="M131.631 5.28809C132.168 5.28809 132.686 5.37109 133.184 5.53711C133.682 5.70312 134.121 5.93262 134.502 6.22559C134.883 6.51855 135.186 6.87012 135.41 7.28027C135.645 7.69043 135.762 8.14453 135.762 8.64258C135.762 8.84766 135.713 9.04785 135.615 9.24316C135.527 9.42871 135.405 9.59473 135.249 9.74121C135.093 9.87793 134.912 9.99023 134.707 10.0781C134.512 10.1562 134.307 10.1953 134.092 10.1953C134.072 10.1953 134.053 10.2002 134.033 10.21C134.023 10.21 134.009 10.21 133.989 10.21C133.97 10.2197 133.95 10.2246 133.931 10.2246L133.989 11.3965C134.028 12.793 134.224 13.8135 134.575 14.458C134.937 15.1025 135.405 15.4248 135.981 15.4248C136.187 15.4248 136.367 15.4053 136.523 15.3662C136.689 15.3271 136.841 15.2832 136.978 15.2344C137.124 15.1758 137.261 15.127 137.388 15.0879C137.515 15.0488 137.642 15.0293 137.769 15.0293C137.993 15.0293 138.188 15.127 138.354 15.3223C138.53 15.5176 138.618 15.752 138.618 16.0254C138.618 16.2988 138.511 16.5723 138.296 16.8457C138.091 17.1191 137.817 17.3682 137.476 17.5928C137.134 17.8076 136.748 17.9834 136.318 18.1201C135.889 18.2568 135.454 18.3252 135.015 18.3252C134.253 18.3252 133.584 18.0127 133.008 17.3877C132.432 16.7529 132.021 15.8252 131.777 14.6045C131.719 14.4092 131.641 14.3115 131.543 14.3115C131.426 14.3115 131.323 14.3701 131.235 14.4873C130.269 15.708 129.238 16.626 128.145 17.2412C127.051 17.8467 125.972 18.1494 124.907 18.1494C124.409 18.1494 123.96 18.0762 123.56 17.9297C123.159 17.7832 122.817 17.5781 122.534 17.3145C122.261 17.041 122.046 16.7139 121.89 16.333C121.743 15.9424 121.67 15.5078 121.67 15.0293C121.67 14.3555 121.816 13.6475 122.109 12.9053C122.412 12.1631 122.817 11.4307 123.325 10.708C123.833 9.98535 124.419 9.29688 125.083 8.64258C125.757 7.98828 126.46 7.41211 127.192 6.91406C127.935 6.41602 128.687 6.02051 129.448 5.72754C130.21 5.43457 130.938 5.28809 131.631 5.28809ZM131.147 10.3564C131.323 10.0244 131.484 9.78516 131.631 9.63867C131.777 9.48242 131.987 9.37988 132.261 9.33105C132.476 9.30176 132.583 9.2334 132.583 9.12598C132.583 9.04785 132.554 8.96484 132.495 8.87695C132.31 8.62305 132.114 8.40332 131.909 8.21777C131.704 8.02246 131.431 7.9248 131.089 7.9248C130.718 7.9248 130.303 8.03223 129.844 8.24707C129.385 8.46191 128.916 8.75 128.438 9.11133C127.969 9.46289 127.505 9.86816 127.046 10.3271C126.597 10.7764 126.196 11.2402 125.845 11.7188C125.493 12.1973 125.21 12.6709 124.995 13.1396C124.78 13.6084 124.673 14.0283 124.673 14.3994C124.673 14.7314 124.761 14.9902 124.937 15.1758C125.122 15.3613 125.371 15.4541 125.684 15.4541C126.484 15.4541 127.358 15.0293 128.306 14.1797C129.253 13.3301 130.2 12.0557 131.147 10.3564Z" fill="white"/>
<path d="M139.351 6.26953C139.351 6.12305 139.414 5.98145 139.541 5.84473C139.668 5.69824 139.834 5.57129 140.039 5.46387C140.244 5.34668 140.474 5.25391 140.728 5.18555C140.991 5.10742 141.255 5.06836 141.519 5.06836C141.665 5.06836 141.787 5.10742 141.885 5.18555C141.992 5.26367 142.085 5.41504 142.163 5.63965C142.241 5.85449 142.31 6.16211 142.368 6.5625C142.437 6.95312 142.5 7.46582 142.559 8.10059C142.598 8.2959 142.632 8.44727 142.661 8.55469C142.7 8.65234 142.749 8.70117 142.808 8.70117C142.896 8.70117 142.983 8.5498 143.071 8.24707C143.784 6.18652 144.814 5.15625 146.162 5.15625C146.787 5.15625 147.354 5.35156 147.861 5.74219C148.379 6.13281 148.857 6.77246 149.297 7.66113C149.746 8.54004 150.171 9.70215 150.571 11.1475C150.972 12.583 151.372 14.3555 151.772 16.4648C151.792 16.5723 151.807 16.6699 151.816 16.7578C151.826 16.8457 151.831 16.9287 151.831 17.0068C151.831 17.2314 151.777 17.4268 151.67 17.5928C151.572 17.749 151.44 17.8809 151.274 17.9883C151.108 18.0859 150.923 18.1592 150.718 18.208C150.513 18.2666 150.308 18.2959 150.103 18.2959C149.692 18.2959 149.395 18.252 149.209 18.1641C149.033 18.0762 148.921 17.9102 148.872 17.666C148.589 16.1816 148.311 14.8633 148.037 13.7109C147.773 12.5586 147.51 11.5918 147.246 10.8105C146.992 10.0195 146.738 9.41895 146.484 9.00879C146.23 8.59863 145.977 8.39355 145.723 8.39355C145.469 8.39355 145.229 8.55469 145.005 8.87695C144.79 9.18945 144.58 9.68262 144.375 10.3564C144.17 11.0303 143.97 11.8848 143.774 12.9199C143.589 13.9551 143.408 15.1904 143.232 16.626C143.184 17.0166 142.988 17.3291 142.646 17.5635C142.305 17.7979 141.87 17.915 141.343 17.915C140.991 17.915 140.723 17.8418 140.537 17.6953C140.352 17.5488 140.249 17.3486 140.229 17.0947C140.142 15.0635 140.044 13.3936 139.937 12.085C139.839 10.7666 139.746 9.71191 139.658 8.9209C139.57 8.12012 139.497 7.52441 139.438 7.13379C139.38 6.74316 139.351 6.45508 139.351 6.26953Z" fill="white"/>
<path d="M153.56 13.2275C153.56 13.0615 153.579 12.876 153.618 12.6709C153.657 12.4658 153.677 12.2412 153.677 11.9971C153.677 11.8311 153.604 11.7041 153.457 11.6162C153.32 11.5283 153.164 11.4307 152.988 11.3232C152.812 11.2158 152.651 11.0791 152.505 10.9131C152.368 10.7471 152.3 10.5078 152.3 10.1953C152.3 9.9707 152.358 9.74609 152.476 9.52148C152.603 9.29688 152.783 9.0918 153.018 8.90625C153.594 8.47656 154.189 8.09082 154.805 7.74902C155.43 7.40723 156.05 7.11914 156.665 6.88477C157.29 6.65039 157.905 6.46973 158.511 6.34277C159.116 6.21582 159.697 6.15234 160.254 6.15234C161.191 6.15234 162.07 6.32812 162.891 6.67969C163.721 7.02148 164.438 7.49512 165.044 8.10059C165.659 8.69629 166.143 9.39941 166.494 10.21C166.855 11.0107 167.036 11.8701 167.036 12.7881C167.036 13.6865 166.846 14.541 166.465 15.3516C166.094 16.1523 165.591 16.8555 164.956 17.4609C164.321 18.0664 163.574 18.5449 162.715 18.8965C161.865 19.2578 160.967 19.4385 160.02 19.4385C159.092 19.4385 158.232 19.2822 157.441 18.9697C156.65 18.6572 155.967 18.2275 155.391 17.6807C154.814 17.124 154.365 16.4697 154.043 15.7178C153.721 14.9561 153.56 14.126 153.56 13.2275ZM160.342 16.8018C160.752 16.8018 161.177 16.7188 161.616 16.5527C162.056 16.3867 162.456 16.1475 162.817 15.835C163.188 15.5127 163.491 15.1221 163.726 14.6631C163.97 14.2041 164.092 13.6865 164.092 13.1104C164.092 12.5244 163.984 11.9775 163.77 11.4697C163.555 10.9619 163.257 10.5225 162.876 10.1514C162.505 9.77051 162.061 9.47266 161.543 9.25781C161.035 9.04297 160.483 8.93555 159.888 8.93555C158.804 8.93555 157.974 9.21875 157.397 9.78516C156.821 10.3418 156.533 11.2012 156.533 12.3633C156.533 12.998 156.626 13.5889 156.812 14.1357C157.007 14.6729 157.275 15.1416 157.617 15.542C157.959 15.9326 158.359 16.2402 158.818 16.4648C159.287 16.6895 159.795 16.8018 160.342 16.8018Z" fill="white"/>
<path d="M176.792 6.78223C176.821 6.50879 176.855 6.28418 176.895 6.1084C176.943 5.92285 177.012 5.77637 177.1 5.66895C177.197 5.55176 177.319 5.46875 177.466 5.41992C177.612 5.37109 177.798 5.34668 178.022 5.34668C178.735 5.34668 179.258 5.4541 179.59 5.66895C179.932 5.87402 180.103 6.20605 180.103 6.66504C180.103 6.75293 180.083 6.94824 180.044 7.25098C180.015 7.54395 179.971 7.91016 179.912 8.34961C179.854 8.7793 179.785 9.25781 179.707 9.78516C179.639 10.3027 179.57 10.8301 179.502 11.3672C179.326 12.6172 179.126 14.0186 178.901 15.5713C178.765 16.4893 178.491 17.1484 178.081 17.5488C177.681 17.9492 177.085 18.1494 176.294 18.1494C175.698 18.1494 175.083 17.998 174.448 17.6953C173.813 17.3926 173.198 16.9824 172.603 16.4648C172.007 15.9473 171.44 15.3467 170.903 14.6631C170.376 13.9697 169.912 13.2373 169.512 12.4658C169.111 11.6846 168.794 10.8887 168.56 10.0781C168.335 9.26758 168.223 8.47656 168.223 7.70508C168.223 6.83594 168.345 6.18652 168.589 5.75684C168.843 5.31738 169.277 5.09766 169.893 5.09766C170.322 5.09766 170.679 5.12695 170.962 5.18555C171.245 5.23438 171.47 5.32715 171.636 5.46387C171.812 5.59082 171.934 5.76172 172.002 5.97656C172.08 6.19141 172.119 6.45996 172.119 6.78223C172.119 6.99707 172.109 7.21191 172.09 7.42676C172.07 7.6416 172.061 7.85645 172.061 8.07129C172.061 8.56934 172.109 9.0918 172.207 9.63867C172.314 10.1758 172.456 10.7031 172.632 11.2207C172.808 11.7383 173.013 12.2314 173.247 12.7002C173.481 13.1592 173.73 13.5645 173.994 13.916C174.258 14.2676 174.521 14.5459 174.785 14.751C175.059 14.9561 175.322 15.0586 175.576 15.0586C175.752 15.0586 175.884 15 175.972 14.8828C176.069 14.7656 176.133 14.5654 176.162 14.2822L176.792 6.78223Z" fill="white"/>
<path d="M184.395 3.14941C184.111 3.14941 183.843 3.11035 183.589 3.03223C183.345 2.94434 183.13 2.82715 182.944 2.68066C182.769 2.52441 182.627 2.34375 182.52 2.13867C182.412 1.93359 182.358 1.70898 182.358 1.46484C182.358 1.05469 182.52 0.722656 182.842 0.46875C183.174 0.214844 183.613 0.0878906 184.16 0.0878906C184.414 0.0878906 184.658 0.136719 184.893 0.234375C185.127 0.322266 185.332 0.444336 185.508 0.600586C185.693 0.756836 185.84 0.942383 185.947 1.15723C186.055 1.3623 186.108 1.57715 186.108 1.80176C186.108 2.22168 185.952 2.55371 185.64 2.79785C185.337 3.03223 184.922 3.14941 184.395 3.14941ZM182.388 7.61719C182.388 7.27539 182.534 6.99707 182.827 6.78223C183.13 6.55762 183.525 6.44531 184.014 6.44531C184.893 6.44531 185.361 6.74805 185.42 7.35352C185.459 7.77344 185.498 8.24707 185.537 8.77441C185.586 9.30176 185.63 9.86328 185.669 10.459C185.718 11.0449 185.757 11.6553 185.786 12.29C185.825 12.915 185.859 13.5352 185.889 14.1504C185.918 14.7559 185.942 15.3418 185.962 15.9082C185.981 16.4746 185.991 16.9922 185.991 17.4609C185.991 17.9492 185.815 18.3154 185.464 18.5596C185.122 18.8037 184.619 18.9258 183.955 18.9258C183.652 18.9258 183.413 18.8525 183.237 18.7061C183.071 18.5693 182.988 18.3643 182.988 18.0908C182.988 16.7432 182.954 15.4834 182.886 14.3115C182.827 13.1299 182.759 12.0801 182.681 11.1621C182.612 10.2441 182.544 9.48242 182.476 8.87695C182.417 8.26172 182.388 7.8418 182.388 7.61719Z" fill="white"/>
<path d="M193.872 6.00586C194.38 6.00586 194.873 6.0791 195.352 6.22559C195.83 6.37207 196.25 6.57227 196.611 6.82617C196.982 7.07031 197.28 7.35352 197.505 7.67578C197.729 7.98828 197.842 8.31055 197.842 8.64258C197.842 8.85742 197.798 9.06738 197.71 9.27246C197.622 9.46777 197.505 9.64355 197.358 9.7998C197.212 9.94629 197.046 10.0684 196.86 10.166C196.675 10.2539 196.479 10.2979 196.274 10.2979C196.05 10.2979 195.845 10.2148 195.659 10.0488C195.474 9.87305 195.273 9.68262 195.059 9.47754C194.854 9.2627 194.619 9.07227 194.355 8.90625C194.102 8.73047 193.794 8.64258 193.433 8.64258C193.081 8.64258 192.764 8.72559 192.48 8.8916C192.197 9.05762 191.958 9.29199 191.763 9.59473C191.577 9.8877 191.431 10.2393 191.323 10.6494C191.226 11.0498 191.177 11.4893 191.177 11.9678C191.177 13.335 191.436 14.3799 191.953 15.1025C192.471 15.8154 193.213 16.1719 194.18 16.1719C194.639 16.1719 195.029 16.0986 195.352 15.9521C195.684 15.8057 195.972 15.6445 196.216 15.4688C196.47 15.293 196.699 15.1318 196.904 14.9854C197.109 14.8389 197.319 14.7656 197.534 14.7656C197.651 14.7656 197.769 14.8047 197.886 14.8828C198.003 14.9512 198.105 15.0439 198.193 15.1611C198.291 15.2686 198.369 15.3906 198.428 15.5273C198.496 15.6641 198.53 15.8008 198.53 15.9375C198.53 16.2598 198.369 16.5918 198.047 16.9336C197.734 17.2754 197.329 17.5879 196.831 17.8711C196.333 18.1445 195.776 18.3691 195.161 18.5449C194.556 18.7207 193.965 18.8086 193.389 18.8086C192.617 18.8086 191.909 18.6572 191.265 18.3545C190.62 18.0615 190.063 17.6514 189.595 17.124C189.126 16.5869 188.76 15.9473 188.496 15.2051C188.242 14.4629 188.115 13.6426 188.115 12.7441C188.115 11.7676 188.257 10.8691 188.54 10.0488C188.833 9.22852 189.233 8.52051 189.741 7.9248C190.259 7.31934 190.869 6.85059 191.572 6.51855C192.275 6.17676 193.042 6.00586 193.872 6.00586Z" fill="white"/>
<path d="M194.814 0.783843C195.735 0.312813 196.045 0.969462 196.045 1.90791C196.045 2.36171 195.435 3.04516 194.805 3.63004C193.98 4.39569 192.204 4.76838 192.204 3.64281C192.204 2.84637 193.893 1.25487 194.814 0.783843Z" fill="white"/>
</svg>
