<svg xmlns="http://www.w3.org/2000/svg" height="682.667" viewBox="0 0 512 512" width="682.667" xmlns:v="https://vecta.io/nano"><path d="M256 0C114.637 0 0 114.637 0 256s114.637 256 256 256 256-114.637 256-256S397.363 0 256 0zm116.887 199.602c.113 2.52.168 5.051.168 7.594 0 77.645-59.102 167.18-167.184 167.184h.004-.004c-33.184 0-64.062-9.727-90.066-26.395a119.51 119.51 0 0 0 14.016.813c27.531 0 52.867-9.391 72.98-25.152-25.723-.477-47.41-17.465-54.895-40.812a58.48 58.48 0 0 0 11.043 1.063c5.363 0 10.559-.723 15.496-2.07-26.887-5.383-47.141-29.145-47.141-57.598l.008-.75c7.918 4.402 16.973 7.051 26.613 7.348-15.777-10.527-26.148-28.523-26.148-48.91 0-10.766 2.91-20.852 7.957-29.535 28.977 35.555 72.281 58.938 121.117 61.395-1.008-4.305-1.527-8.789-1.527-13.398 0-32.437 26.316-58.754 58.766-58.754 16.902 0 32.168 7.145 42.891 18.566 13.387-2.641 25.957-7.531 37.313-14.262-4.395 13.715-13.707 25.223-25.84 32.5 11.887-1.422 23.215-4.574 33.742-9.254-7.863 11.785-17.836 22.137-29.309 30.43zm0 0"/></svg>